<?xml version="1.0" encoding="UTF-8" standalone="no"?>
<svg
   xmlns:dc="http://purl.org/dc/elements/1.1/"
   xmlns:cc="http://creativecommons.org/ns#"
   xmlns:rdf="http://www.w3.org/1999/02/22-rdf-syntax-ns#"
   xmlns:svg="http://www.w3.org/2000/svg"
   xmlns="http://www.w3.org/2000/svg"
   xmlns:sodipodi="http://sodipodi.sourceforge.net/DTD/sodipodi-0.dtd"
   xmlns:inkscape="http://www.inkscape.org/namespaces/inkscape"
   fill="#000000"
   version="1.1"
   id="Capa_1"
   width="800"
   height="217"
   viewBox="0 0 50.406 13.672899"
   xml:space="preserve"
   sodipodi:docname="Copia di paypal-logo-svgrepo-com-noborder.svg"
   inkscape:version="1.0.1 (3bc2e813f5, 2020-09-07)"><metadata
   id="metadata12"><rdf:RDF><cc:Work
       rdf:about=""><dc:format>image/svg+xml</dc:format><dc:type
         rdf:resource="http://purl.org/dc/dcmitype/StillImage" /><dc:title></dc:title></cc:Work></rdf:RDF></metadata><defs
   id="defs10" /><sodipodi:namedview
   pagecolor="#ffffff"
   bordercolor="#666666"
   borderopacity="1"
   objecttolerance="10"
   gridtolerance="10"
   guidetolerance="10"
   inkscape:pageopacity="0"
   inkscape:pageshadow="2"
   inkscape:window-width="1366"
   inkscape:window-height="702"
   id="namedview8"
   showgrid="false"
   inkscape:zoom="0.7075"
   inkscape:cx="400"
   inkscape:cy="145.58304"
   inkscape:window-x="0"
   inkscape:window-y="0"
   inkscape:window-maximized="1"
   inkscape:current-layer="Capa_1" />
<g
   id="g5"
   transform="translate(0,-18.36655)">
	<g
   id="Layer_1_copy_5_">
		<path
   d="M 9.035,20.603 C 8.87,20.272 8.609,19.999 8.285,19.794 7.947,19.587 7.548,19.442 7.092,19.356 6.628,19.272 6.092,19.234 5.471,19.228 L 2.604,19.23 c -0.298,0.004 -0.59,0.236 -0.66,0.524 l -1.929,8.402 c -0.07,0.284 0.117,0.522 0.415,0.522 h 1.373 c 0.298,0 0.593,-0.231 0.659,-0.522 l 0.471,-2.04 C 2.996,25.832 3.29,25.595 3.591,25.595 H 3.984 C 5.663,25.593 6.963,25.25 7.897,24.563 8.836,23.875 9.299,22.966 9.299,21.84 9.298,21.347 9.217,20.933 9.035,20.603 Z M 6.074,23.348 C 5.659,23.652 5.082,23.804 4.338,23.804 H 4.002 C 3.703,23.804 3.52,23.568 3.585,23.28 L 3.998,21.496 C 4.056,21.21 4.357,20.973 4.652,20.975 l 0.45,-0.003 c 0.525,0 0.926,0.091 1.194,0.267 0.265,0.174 0.398,0.451 0.396,0.818 0.008,0.558 -0.205,0.987 -0.618,1.291 z m 18.874,-1.097 -5.47,9.251 c -0.176,0.289 -0.565,0.522 -0.861,0.522 l -1.422,0.002 c -0.295,0 -0.392,-0.235 -0.212,-0.523 l 1.216,-2.118 c 0,0 0.098,-0.123 0.011,-0.813 -0.187,-1.251 -1.121,-6.566 -1.121,-6.566 -0.067,-0.288 0.115,-0.524 0.411,-0.524 l 1.23,-0.002 c 0.377,0 0.68,0.248 0.748,0.538 l 0.612,3.687 0.228,0.003 c 0.191,-0.339 2.157,-3.713 2.157,-3.713 0.188,-0.285 0.568,-0.524 0.864,-0.524 0,0 1.321,0.004 1.646,0 0.489,-0.011 -0.037,0.78 -0.037,0.78 z m 9.019,-1.617 c -0.172,-0.333 -0.43,-0.602 -0.756,-0.812 -0.334,-0.208 -0.73,-0.354 -1.193,-0.438 -0.455,-0.081 -0.998,-0.125 -1.615,-0.126 l -2.871,0.002 c -0.299,0.005 -0.586,0.237 -0.655,0.522 l -1.931,8.406 c -0.07,0.285 0.122,0.521 0.414,0.521 l 1.375,-0.002 c 0.292,0.002 0.591,-0.232 0.66,-0.52 l 0.465,-2.041 c 0.068,-0.284 0.363,-0.523 0.66,-0.521 h 0.393 c 1.681,0 2.984,-0.346 3.922,-1.031 0.927,-0.693 1.396,-1.6 1.396,-2.727 -0.005,-0.491 -0.09,-0.906 -0.264,-1.233 z m -2.961,2.749 c -0.414,0.298 -0.992,0.45 -1.732,0.45 h -0.342 c -0.295,0.003 -0.486,-0.237 -0.42,-0.523 l 0.416,-1.781 c 0.061,-0.285 0.359,-0.524 0.656,-0.521 l 0.445,-0.003 c 0.528,0.003 0.924,0.09 1.194,0.266 0.269,0.176 0.396,0.452 0.399,0.818 0.003,0.558 -0.204,0.988 -0.616,1.294 z M 15.655,21.804 c -0.518,-0.292 -1.336,-0.438 -2.454,-0.438 -0.553,0 -1.104,0.043 -1.661,0.129 -0.411,0.063 -0.451,0.075 -0.704,0.13 -0.522,0.114 -0.604,0.635 -0.604,0.635 l -0.168,0.691 c -0.095,0.441 0.159,0.424 0.265,0.387 0.228,-0.068 0.355,-0.138 0.821,-0.242 0.445,-0.101 0.914,-0.177 1.286,-0.172 0.549,0 0.969,0.058 1.249,0.176 0.276,0.12 0.414,0.326 0.414,0.624 l -0.024,0.194 -0.198,0.122 c -0.779,0.049 -1.342,0.121 -2.025,0.22 -0.668,0.093 -1.254,0.256 -1.741,0.479 -0.523,0.23 -0.911,0.539 -1.182,0.932 -0.262,0.395 -0.393,0.874 -0.393,1.436 0,0.529 0.19,0.966 0.559,1.304 0.371,0.332 0.861,0.494 1.447,0.494 0.371,-0.002 0.658,-0.031 0.862,-0.08 l 0.665,-0.229 0.563,-0.312 0.518,-0.342 0.007,0.01 -0.052,0.22 -0.003,0.009 v 0.002 c -0.056,0.268 0.106,0.488 0.367,0.514 l 0.005,0.006 h 0.024 1.053 0.198 l 0.018,-0.008 c 0.274,-0.032 0.531,-0.252 0.591,-0.514 l 1.001,-4.333 0.052,-0.353 0.024,-0.331 c 0.004,-0.614 -0.261,-1.069 -0.78,-1.36 z m -2.214,4.872 -0.214,0.282 -0.54,0.279 c -0.254,0.103 -0.495,0.155 -0.718,0.155 -0.338,0 -0.603,-0.049 -0.782,-0.149 l -0.265,-0.515 c 0,-0.279 0.064,-0.5 0.201,-0.67 l 0.582,-0.396 c 0.249,-0.084 0.553,-0.155 0.905,-0.204 0.314,-0.039 0.934,-0.11 1.015,-0.112 l 0.095,0.167 c -0.018,0.095 -0.194,0.831 -0.279,1.163 z m 34.282,-7.915 h 0.459 v 0.189 h -0.459 v 0.611 l 0.002,0.165 0.033,0.11 0.072,0.07 0.141,0.022 0.115,-0.016 0.086,-0.026 h 0.012 v 0.201 l -0.139,0.027 -0.131,0.011 -0.312,-0.112 -0.106,-0.352 V 18.95 h -0.154 v -0.189 h 0.154 V 18.38 h 0.227 z m -7.131,3.049 c -0.521,-0.292 -1.338,-0.439 -2.453,-0.439 -0.553,0 -1.105,0.043 -1.66,0.132 -0.412,0.06 -0.453,0.073 -0.707,0.127 -0.521,0.113 -0.602,0.636 -0.602,0.636 l -0.168,0.69 c -0.094,0.441 0.154,0.421 0.27,0.387 0.229,-0.068 0.352,-0.135 0.814,-0.243 0.443,-0.1 0.916,-0.174 1.289,-0.172 0.547,0 0.967,0.059 1.246,0.177 0.278,0.12 0.414,0.328 0.414,0.623 l -0.021,0.193 -0.196,0.125 c -0.787,0.047 -1.351,0.119 -2.027,0.218 -0.666,0.093 -1.254,0.255 -1.742,0.479 -0.521,0.231 -0.914,0.54 -1.182,0.934 -0.265,0.395 -0.394,0.873 -0.394,1.43 0,0.533 0.188,0.97 0.562,1.306 0.373,0.331 0.858,0.497 1.444,0.497 0.369,-0.004 0.656,-0.028 0.861,-0.081 l 0.663,-0.226 0.568,-0.312 0.514,-0.346 0.009,0.011 -0.047,0.222 -0.005,0.004 0.002,0.004 c -0.062,0.268 0.101,0.49 0.365,0.514 l 0.002,0.005 h 0.024 v 0 c 0.173,0 0.771,0 1.056,0 h 0.194 l 0.021,-0.007 c 0.271,-0.033 0.527,-0.253 0.584,-0.518 l 1.004,-4.327 0.053,-0.355 0.029,-0.332 c 0.001,-0.612 -0.261,-1.065 -0.784,-1.356 z m -2.209,4.872 -0.223,0.285 -0.535,0.277 c -0.254,0.102 -0.496,0.155 -0.715,0.155 -0.349,0 -0.607,-0.05 -0.781,-0.15 l -0.268,-0.513 c 0,-0.28 0.065,-0.499 0.196,-0.672 0.133,-0.163 0.336,-0.297 0.588,-0.395 0.246,-0.084 0.55,-0.152 0.904,-0.203 0.312,-0.039 0.93,-0.112 1.01,-0.113 l 0.097,0.167 c -0.014,0.095 -0.191,0.828 -0.273,1.162 z m 7.357,-6.833 0.004,0.001 -1.838,8.331 -0.066,0.1 c -0.107,0.234 -0.342,0.424 -0.592,0.424 H 41.971 L 41.95,28.676 c -0.244,-0.037 -0.402,-0.231 -0.345,-0.488 l -0.002,-0.006 0.056,-0.24 1.719,-7.814 0.062,-0.272 0.068,-0.106 c 0.111,-0.23 0.338,-0.417 0.59,-0.417 h 1.23 c 0.295,-0.004 0.475,0.229 0.412,0.516 z m 4.561,-0.991 0.105,0.373 v 0.867 h -0.224 v -0.763 l -0.015,-0.163 -0.028,-0.129 -0.08,-0.077 -0.147,-0.027 -0.188,0.047 -0.19,0.121 0.004,0.065 0.004,0.071 v 0.854 h -0.223 v -0.763 l -0.011,-0.165 -0.033,-0.128 -0.075,-0.077 -0.152,-0.027 -0.186,0.046 -0.187,0.116 v 0.997 h -0.222 v -1.335 h 0.223 v 0.148 l 0.211,-0.136 0.223,-0.049 0.232,0.055 0.143,0.159 0.246,-0.166 0.242,-0.049 z"
   id="path2" />
	</g>
</g>
</svg>
